<svg width="100%" height="100%" viewBox="0 0 827 838"
     xmlns="http://www.w3.org/2000/svg" 
     xmlns:xlink="http://www.w3.org/1999/xlink">

  <desc><![CDATA[
    Raining Animation
    
    Remix of https://openclipart.org/detail/284459/when-it-rains-or-who-left-the-facet-open by cactus cowboy
    polygon, polyline, and line elements converted to paths
    
    Jay Nick
    STEAMcoded.org
  ]]>
  </desc>
  
  <defs>
    <path id="rain" transform="rotate(15,413.5,419)" d="M413.5,-50l0,938" style="fill:none;stroke:#999;stroke-width:3;stroke-linecap:round;stroke-linejoin:round;stroke-dasharray:13.18,13.18;"/>
    
    <clipPath id="cp1">
      <path d="M10.85 830.16l0-820.31 808.31 0-0.75 820.31z"/>
    </clipPath>
    
    <mask id="m1">
      <path style="fill:white;" d="M10.85 830.16l0-820.31 808.31 0-0.75 820.31z"/>
      <path style="fill:black;" d="M10.85 830.16l0-158.63 9-3 4.5-3.37 10.87-9.75 11.63 9.75 4.68 3.37 11.25 4.13 11.62-0.75 9.95-3.38 18.18-13.12 8.62 8.25 7.13 4.87 6.75 3.38 12.37 0 8.63-2.07 5.82-2.81 12.75-9.94 11.43 8.07 8.07 4.68 8.05 2.07 9.2 0 10.3-3.19 14.25-9.56 8.63 6.37 6.37 4.31 7.88 2.07 7.12 0 8.63-2.07 4.32-1.12 7.87-6 13.5-6.19 8.63 3.75 4.68 4.88 9.75 4.68 12.19 0 10.5-4.68 6.38-4.88 8.25-3.37 10.3 8.25 14.25 4.68 13.13 1.13 13.87-2.44 10.32-5.44 11.44-6.18 19.12 12.93 15 2.07 15.19-2.07 10.31-6.18 9.94-8.25 12 9.75 12.19 4.68 10.12 0 12-2.81 15-10.12 10.31 8.25 3.38 1.87 10.5 3.94 9.56 0.94 12.38-2.44 7.5-3.94 11.25-6.75 26.62 15.56 21.19 0 18.37-14.06 6.75 4.88 5.25 3.37 11.07 5.44 11.06 0.37 11.62-0.37 12-5.44 6.57-3.37 8.62-6.38 9.94 8.25 8.44 5.63 10.12 1.68 11.06-0.37 11.44-9.19 8.63-10.69 0 176.07z"/>
      <path style="fill:black;stroke-width:2;" d="M733 350l-14.34-23.29-10.69-20.06-12.94-19.13-13.69-18.75-15.56-16.68-17.25-16.13-18.19-14.62-18.75-13.5-20.43-11.44-20.63-10.5-21.37-8.06-22.13-7.5-23.06-4.88-23.06-3.94-23.07-1.5-23.25 0-23.44 1.5-22.87 3.94-22.5 4.88-22.5 7.5-21.38 8.06-21.37 10.5-20.06 11.44-19.12 13.12-18.2 14.81-6.18 5.82 l-140,500l530,0 z"/>
      <path style="fill:black;" d="M474.53 493.22l-2.06 19.12 2.06 23.07 6 18 11.25 10.12 14.25 2.63 0-47.82 149.63-50.25 16.5-8.25 0 15.94-11.63 13.88-11.25 17.06 0 15.19-0.56 3.37 47.62 53.44-15.56 11.06 13.88 15.19 6.56 12 3 12.75 2.81 15.19 1.88 29.06-11.07-5.44-5.25-3.37-6.75-4.88-18.37 14.06-21.19 0-26.62-15.56-11.25 6.75-7.5 3.94-12.38 2.44-9.56-0.94-10.5-3.94-3.38-1.87-10.31-8.25-15 10.12-12 2.81-10.12 0-12.19-4.68-12-9.75-9.94 8.25-10.31 6.18-15.19 2.07-15-2.07-19.12-12.93-12.01 6.75-9.75 4.87-13.87 2.44-13.13-1.13-14.25-4.68-10.3-8.25-8.25 3.37-6.38 4.88-10.5 4.68-12.19 0-9.75-4.68-4.68-4.88 27.55-54.75-22.12-52.87 26.07-10.13 14.62 33.38 14.25-42 44.43-16.88z"/>
    </mask>

    <mask id="m2">
      <path style="fill:white;" d="M10.85 830.16l0-820.31 808.31 0-0.75 820.31z"/>
      <path style="fill:black" d="M718.66 326.72l-10.69-20.06-12.94-19.13-13.69-18.75-15.56-16.68-17.25-16.13-18.19-14.62-18.75-13.5-20.43-11.44-20.63-10.5-21.37-8.06-22.13-7.5-23.06-4.88-23.06-3.94-23.07-1.5-23.25 0-23.44 1.5-22.87 3.94-22.5 4.88-22.5 7.5-21.38 8.06-21.37 10.5-20.06 11.44-19.12 13.12-18.2 14.81-6.18 5.82 7.31-2.25 19.5-6.38 20.25-1.12 20.25 3.93 17.62 9.75 14.63 13.5 8.25-3.75 19.5-4.5 20.44 0.19 20.06 5.25 16.69 10.5 14.06 12.56 6.75-3.75 20.06-4.31 20.82 0 19.68 5.06 17.07 10.88 13.5 14.81 7.31-4.31 19.69-4.88 19.87 0 20.25 5.63 17.63 10.12 13.31 14.82 7.5-2.82 19.31-3.93 20.25 0 20.81 5.62 16.5 10.13 13.69 15z"/>
      <path style="fill:black;" d="M604.84 350.35l-15-4.88-15.18-1.87-13.32 0-11.62 1.87-16.31 9-8.25 9-7.13 11.25-19.31 6-13.13 4.88-16.87 7.31-13.88 7.31-5.43 5.25-1.69 3.38-1.69 3.75 0 3.37 1.13 5.25 2.06 3.19 2.25 2.43 3.37 2.07 4.32 2.06 9.56 0.56 10.87-1.87 5.07-1.5 0.37 20.43 18.38 8.82-23.63 6.18-2.44 13.5-2.81 16.13-2.06 19.12 2.06 23.07 6 18 11.25 10.12 14.25 2.63 0-47.82 149.63-50.25 6-7.68 1.5-10.5-1.5-10.88-4.5-9.37-12.19-2.82-8.44-1.31-11.06 3.38-7.88 5.06-5.62 4.31 5.25-23.62 0-24.19-4.69-21.19z"/>
      <path style="fill:black;" d="M395.22 583.41l22.31 17.06 1.13 5.81-4.51 8.44-8.43 1.12-16.32-16.87-0.75-5.81 1.7-6.38z"/>
      <path style="fill:black;" d="M417.53 600.47l-22.31-17.06-3.19-7.13 1.12-10.12 6.57-5.63 22.12 18.19 4.5 8.62 0 7.32-2.06 3.18z"/>
      <path style="fill:black;" d="M418.66 549.28l15 13.5 0 7.31-5.63 7.69-6.19 0.94-22.12-18.19-0.75-5.62 0.75-3.19 2.43-3.56 4.32-2.25z"/>
    </mask>
  </defs>
  
     
  <g style="fill:none;stroke:#000000;stroke-width:3;stroke-linecap:round;stroke-linejoin:round;">
    <path d="M10.85 830.16l0-820.31 808.31 0-0.75 820.31z"/>
    <path d="M10.85 830.16l0-158.63 9-3 4.5-3.37 10.87-9.75 11.63 9.75 4.68 3.37 11.25 4.13 11.62-0.75 9.95-3.38 18.18-13.12 8.62 8.25 7.13 4.87 6.75 3.38 12.37 0 8.63-2.07 5.82-2.81 12.75-9.94 11.43 8.07 8.07 4.68 8.05 2.07 9.2 0 10.3-3.19 14.25-9.56 8.63 6.37 6.37 4.31 7.88 2.07 7.12 0 8.63-2.07 4.32-1.12 7.87-6 13.5-6.19 8.63 3.75 4.68 4.88 9.75 4.68 12.19 0 10.5-4.68 6.38-4.88 8.25-3.37 10.3 8.25 14.25 4.68 13.13 1.13 13.87-2.44 10.32-5.44 11.44-6.18 19.12 12.93 15 2.07 15.19-2.07 10.31-6.18 9.94-8.25 12 9.75 12.19 4.68 10.12 0 12-2.81 15-10.12 10.31 8.25 3.38 1.87 10.5 3.94 9.56 0.94 12.38-2.44 7.5-3.94 11.25-6.75 26.62 15.56 21.19 0 18.37-14.06 6.75 4.88 5.25 3.37 11.07 5.44 11.06 0.37 11.62-0.37 12-5.44 6.57-3.37 8.62-6.38 9.94 8.25 8.44 5.63 10.12 1.68 11.06-0.37 11.44-9.19 8.63-10.69 0 176.07z" style="fill:#92BDDA;"/>
    <path d="M718.66 326.72l-10.69-20.06-12.94-19.13-13.69-18.75-15.56-16.68-17.25-16.13-18.19-14.62-18.75-13.5-20.43-11.44-20.63-10.5-21.37-8.06-22.13-7.5-23.06-4.88-23.06-3.94-23.07-1.5-23.25 0-23.44 1.5-22.87 3.94-22.5 4.88-22.5 7.5-21.38 8.06-21.37 10.5-20.06 11.44-19.12 13.12-18.2 14.81-6.18 5.82 7.31-2.25 19.5-6.38 20.25-1.12 20.25 3.93 17.62 9.75 14.63 13.5 8.25-3.75 19.5-4.5 20.44 0.19 20.06 5.25 16.69 10.5 14.06 12.56 6.75-3.75 20.06-4.31 20.82 0 19.68 5.06 17.07 10.88 13.5 14.81 7.31-4.31 19.69-4.88 19.87 0 20.25 5.63 17.63 10.12 13.31 14.82 7.5-2.82 19.31-3.93 20.25 0 20.81 5.62 16.5 10.13 13.69 15z" style="fill:#A5A5A5;stroke-width:2;"/>
    <path d="M604.84 350.35l-15-4.88-15.18-1.87-13.32 0-11.62 1.87-16.31 9-8.25 9-7.13 11.25-19.31 6-13.13 4.88-16.87 7.31-13.88 7.31-5.43 5.25-1.69 3.38-1.69 3.75 0 3.37 1.13 5.25 2.06 3.19 2.25 2.43 3.37 2.07 4.32 2.06 9.56 0.56 10.87-1.87 5.07-1.5 0.37 20.43 18.38 8.82-23.63 6.18-2.44 13.5-2.81 16.13-2.06 19.12 2.06 23.07 6 18 11.25 10.12 14.25 2.63 0-47.82 149.63-50.25 6-7.68 1.5-10.5-1.5-10.88-4.5-9.37-12.19-2.82-8.44-1.31-11.06 3.38-7.88 5.06-5.62 4.31 5.25-23.62 0-24.19-4.69-21.19z"/>
    <path d="M604.84 350.35l7.69 18.93 4.69 21.19 0 24.19-5.25 23.62 5.62-4.31 7.88-5.06 11.06-3.38 8.44 1.31-0.56-21.37-3.57-19.5-11.06-18.75-15.75-13.5z" style="fill:#C1BCA8;"/>
    <path d="M474.53 493.22l-2.06 19.12 2.06 23.07 6 18 11.25 10.12 14.25 2.63 0-47.82 149.63-50.25 16.5-8.25 0 15.94-11.63 13.88-11.25 17.06 0 15.19-0.56 3.37 47.62 53.44-15.56 11.06 13.88 15.19 6.56 12 3 12.75 2.81 15.19 1.88 29.06-11.07-5.44-5.25-3.37-6.75-4.88-18.37 14.06-21.19 0-26.62-15.56-11.25 6.75-7.5 3.94-12.38 2.44-9.56-0.94-10.5-3.94-3.38-1.87-10.31-8.25-15 10.12-12 2.81-10.12 0-12.19-4.68-12-9.75-9.94 8.25-10.31 6.18-15.19 2.07-15-2.07-19.12-12.93-12.01 6.75-9.75 4.87-13.87 2.44-13.13-1.13-14.25-4.68-10.3-8.25-8.25 3.37-6.38 4.88-10.5 4.68-12.19 0-9.75-4.68-4.68-4.88 27.55-54.75-22.12-52.87 26.07-10.13 14.62 33.38 14.25-42 44.43-16.88z"/>
    <path d="M405.72 615.84l8.43-1.12 4.51-8.44-1.13-5.81 6.75-2.63 2.06-3.18 0-7.32-4.5-8.62 6.19-0.94 5.63-7.69 0-7.31-15-13.5 5.25-5.62 9 0 13.87 5.62 11.81 10.69 10.13 15.37-36.56 64.5z"/>
    <path d="M395.22 583.41l22.31 17.06 1.13 5.81-4.51 8.44-8.43 1.12-16.32-16.87-0.75-5.81 1.7-6.38z"/>
    <path d="M417.53 600.47l-22.31-17.06-3.19-7.13 1.12-10.12 6.57-5.63 22.12 18.19 4.5 8.62 0 7.32-2.06 3.18z"/>
    <path d="M418.66 549.28l15 13.5 0 7.31-5.63 7.69-6.19 0.94-22.12-18.19-0.75-5.62 0.75-3.19 2.43-3.56 4.32-2.25z"/>
    <path d="M477.34 356.91l-25.87-7.13-27.56 0-20.63 7.88-9.75 3.94 20.62 6.93 20.82 8.07 33.75 16.31 16.87-7.31 13.13-4.88-5.25-9.56-7.5-7.69z"/>
    <path d="M414.15 368.53l20.82 8.07 33.75 16.31-13.88 7.31-5.43 5.25-1.69 3.38-1.69 3.75 0 3.37 1.13 5.25 2.06 3.19 2.25 2.43 3.37 2.07 4.32 2.06 9.56 0.56 10.87-1.87 5.07-1.5 0.37 20.43 18.38 8.82-23.63 6.18-2.44 13.5-27-13.5-52.12-25.68-20.82-12.57-16.68-7.49-8.44-3.75-9-0.94-5.25 2.25-3.38 4.12-0.93 5.44 0 1.5-3.37-3.19-3-10.12 0-10.31 5.25-9.94 9.37-8.06 9.93-4.5 0.38-1.5 5.25-10.32 9-8.25 14.44-0.93 12.56 2.25z"/>
    <path d="M474.53 493.22l-70.88 23.81-5.43-79.12 52.12 25.68 27 13.5z" style="fill:#FFFFCC;"/>
    <path d="M344.97 575.91l14.25-42 44.43-16.88-5.43-79.12-20.82-12.57-16.68-7.49-8.44-3.75-9-0.94-5.25 2.25-3.38 4.12-0.93 5.44 0 3.94-14.25 10.12-8.25 7.13-8.25 11.25-1.87 6.56 0 5.62 3.18 4.69 12.57 2.81-0.57 1.88-2.06 5.25-3.57 6 0 1.5 0 2.06 1.32 3.19 2.25 1.31 2.63 2.44-6.2 3-1.5 4.5-0.37 7.31 0 8.06 3.19 8.63 4.88 6.37 13.5 3.94z"/>
    <path d="M258.35 572.34l-0.38-4.31 0-3.19 2.25-6.37 5.43-6.19 5.07-4.12 5.06-1.69 5.82-2.06 13.3-8.07 9.38-3 7.69-1.12 4.88 6.37 13.5 3.94-26.07 10.13 22.12 52.87z"/>
    <path d="M264.53 669.84l-15-6.18-8.43-14.07-1.13-15.75 0-6.93 1.88-14.25-9.38-0.94-7.5-4.13-3-6.18 0-5.07 5.06-7.87 6.37-2.44 8.25 0 7.88 0 5.62-4.31 6.2-7.5 65.05 31.31-27.55 54.75-8.63-3.75-13.5 6.19-7.87 6z"/>
    <path d="M491.78 274.6l-97 390" style="stroke-width:10;mask:url(#m2)"/>
    <path d="M603.72 598.97l-15.38 70.5" style="stroke-width:2;"/>
    <path d="M541.28 394.22l-0.37-1.31-0.94-0.56-0.38-0.57-1.31 0.57-0.56 0.56 0 1.31 0 0.56 0.56 0.94 1.31 0 0.38 0 0.94-0.94z"/>
    <path d="M629.03 455.34l11.44-11.62"/>
    <path d="M355.65 443.72l-0.55-0.75-0.38-1.5-1.12-0.38-1.32 0.38-0.38 1.5 0 0.75 0 0.75 0.38 0.37 1.32 0 1.12 0 0.38-0.37z"/>
    <path d="M315.15 500.34l13.5 2.07 6.95 1.5"/>
    <path d="M241.85 634.78l26.25 0"/>
    <path d="M274.28 594.66l-0.56-0.75-0.57-1.13-0.75 0-1.12 0-0.93 1.13 0 0.75 0 0.93 0.93 0.38 1.12 0.37 0.75-0.37 0.57-0.38z"/>
  </g>


    
  <g style="clip-path:url(#cp1);mask:url(#m1);">
    <animate attributeName="stroke-dashoffset" values="26.36;0;" begin="0s" dur="0.12s" repeatCount="indefinite" />
    <g transform="translate(-495,0)">
      <use xlink:href="#rain" transform="translate(0,0)" />
      <use xlink:href="#rain" transform="translate(40,0)" />
      <use xlink:href="#rain" transform="translate(80,0)" />
      <use xlink:href="#rain" transform="translate(120,0)" />
      <use xlink:href="#rain" transform="translate(160,0)" />
      <use xlink:href="#rain" transform="translate(200,0)" />
      <use xlink:href="#rain" transform="translate(240,0)" />
      <use xlink:href="#rain" transform="translate(280,0)" />
      <use xlink:href="#rain" transform="translate(320,0)" />
      <use xlink:href="#rain" transform="translate(360,0)" />
      <use xlink:href="#rain" transform="translate(400,0)" />
      <use xlink:href="#rain" transform="translate(440,0)" />
      <use xlink:href="#rain" transform="translate(480,0)" />
      <use xlink:href="#rain" transform="translate(520,0)" />
      <use xlink:href="#rain" transform="translate(560,0)" />
      <use xlink:href="#rain" transform="translate(600,0)" />
      <use xlink:href="#rain" transform="translate(640,0)" />
      <use xlink:href="#rain" transform="translate(680,0)" />
      <use xlink:href="#rain" transform="translate(720,0)" />
      <use xlink:href="#rain" transform="translate(760,0)" />
      <use xlink:href="#rain" transform="translate(800,0)" />
      <use xlink:href="#rain" transform="translate(840,0)" />
      <use xlink:href="#rain" transform="translate(880,0)" />
      <use xlink:href="#rain" transform="translate(920,0)" />
      <use xlink:href="#rain" transform="translate(960,0)" />
    </g>
  </g>
</svg>